<svg width="443" height="700" viewBox="0 0 443 700" fill="none" xmlns="http://www.w3.org/2000/svg">
<path d="M106.463 -52C94.009 -39.5458 84.9646 -26.7995 74.9553 -12.5556C62.3885 5.32807 45.5866 35.4543 51.0664 59.4286C53.3601 69.4635 63.1563 84.0287 70.749 90.7778C86.4284 104.715 111.212 105.513 131.384 102.286C148.161 99.6014 160.948 86.931 178.685 92.2857C193.452 96.7435 203.452 100.993 212.971 113.397C225.76 130.061 223.636 150.188 225.114 170.143C226.964 195.114 231.741 221.09 246.305 242.127C256.584 256.976 286.696 271.855 296.855 276.294C305.99 280.285 339.689 294.95 345.056 303C372.061 325.151 384.037 343.917 389.5 368.5C396.325 399.211 391.251 433 377 455C362.749 477 321.241 509.359 297.574 523.714C281.587 533.412 245.833 547.896 233.492 562M233.492 562C221.642 575.543 247.495 550.542 233.492 562ZM233.492 562C209.142 581.922 204.515 630.872 206.667 661C207.996 679.615 239.265 785.234 254 791C266.492 795.888 271.323 763.204 279.479 773.69C281.973 776.897 277.892 771.486 277.892 762.286" stroke="#F5AE25" stroke-width="100" stroke-linecap="round"/>
</svg>
