<svg width="553" height="700" viewBox="0 0 553 700" fill="none" xmlns="http://www.w3.org/2000/svg">
<path d="M175.522 -22C137.926 -9.41918 71.0296 105.562 65.9798 119.423C55.3848 148.505 45.1976 158.34 52.4381 182.558C55.4687 192.695 67.8393 207.336 77.8714 214.154C98.5883 228.233 131.335 229.039 157.987 225.779C180.155 223.067 197.05 210.268 220.486 215.677C239.996 220.18 253.209 224.473 265.787 237.003C282.685 253.836 279.878 274.168 281.831 294.326C284.275 319.55 290.587 345.791 309.83 367.041C323.413 382.041 363.199 397.071 376.621 401.555C388.691 405.588 433.217 420.401 440.308 428.533C475.989 450.909 491.814 469.866 499.032 494.699C508.049 525.721 501.346 559.854 482.516 582.078C463.686 604.302 408.843 636.989 377.572 651.491C356.448 661.287 309.206 675.918 292.9 690.165M292.9 690.165C277.243 703.846 311.403 678.591 292.9 690.165ZM292.9 690.165C260.728 710.29 254.614 759.737 257.457 790.172C259.214 808.976 300.528 915.668 319.998 921.493C336.503 926.431 342.886 893.415 353.663 904.008C356.958 907.246 351.566 901.78 351.566 892.487" stroke="#F5AE25" stroke-width="100" stroke-linecap="round"/>
</svg>
